<svg style="background-color:black;" viewBox="0 0 2310 105" xmlns="http://www.w3.org/2000/svg">
<circle cx="105" cy="55" fill="rgb(63,187,134)" r="50"/>
<circle cx="210" cy="55" fill="rgb(59,187,137)" r="50"/>
<circle cx="315" cy="55" fill="rgb(55,188,139)" r="50"/>
<circle cx="420" cy="55" fill="rgb(50,188,142)" r="50"/>
<circle cx="525" cy="55" fill="rgb(46,188,145)" r="50"/>
<circle cx="630" cy="55" fill="rgb(41,188,148)" r="50"/>
<circle cx="735" cy="55" fill="rgb(37,188,151)" r="50"/>
<circle cx="840" cy="55" fill="rgb(32,188,154)" r="50"/>
<circle cx="945" cy="55" fill="rgb(27,188,157)" r="50"/>
<circle cx="1050" cy="55" fill="rgb(22,188,160)" r="50"/>
<circle cx="1155" cy="55" fill="rgb(18,188,162)" r="50"/>
<circle cx="1260" cy="55" fill="rgb(13,188,165)" r="50"/>
<circle cx="1365" cy="55" fill="rgb(9,188,168)" r="50"/>
<circle cx="1470" cy="55" fill="rgb(5,187,171)" r="50"/>
<circle cx="1575" cy="55" fill="rgb(3,187,173)" r="50"/>
<circle cx="1680" cy="55" fill="rgb(2,187,176)" r="50"/>
<circle cx="1785" cy="55" fill="rgb(4,187,179)" r="50"/>
<circle cx="1890" cy="55" fill="rgb(6,186,181)" r="50"/>
<circle cx="1995" cy="55" fill="rgb(10,186,184)" r="50"/>
<circle cx="2100" cy="55" fill="rgb(14,186,186)" r="50"/>
<circle cx="2205" cy="55" fill="rgb(19,185,189)" r="50"/>
</svg>