<svg style="background-color:black;" viewBox="0 0 2310 105" xmlns="http://www.w3.org/2000/svg">
<circle cx="105" cy="55" fill="rgb(218,131,161)" r="50"/>
<circle cx="210" cy="55" fill="rgb(219,131,158)" r="50"/>
<circle cx="315" cy="55" fill="rgb(219,131,156)" r="50"/>
<circle cx="420" cy="55" fill="rgb(220,131,153)" r="50"/>
<circle cx="525" cy="55" fill="rgb(220,131,150)" r="50"/>
<circle cx="630" cy="55" fill="rgb(221,131,147)" r="50"/>
<circle cx="735" cy="55" fill="rgb(221,131,145)" r="50"/>
<circle cx="840" cy="55" fill="rgb(221,131,142)" r="50"/>
<circle cx="945" cy="55" fill="rgb(222,132,139)" r="50"/>
<circle cx="1050" cy="55" fill="rgb(222,132,136)" r="50"/>
<circle cx="1155" cy="55" fill="rgb(222,132,133)" r="50"/>
<circle cx="1260" cy="55" fill="rgb(222,132,131)" r="50"/>
<circle cx="1365" cy="55" fill="rgb(222,133,128)" r="50"/>
<circle cx="1470" cy="55" fill="rgb(222,133,125)" r="50"/>
<circle cx="1575" cy="55" fill="rgb(222,133,122)" r="50"/>
<circle cx="1680" cy="55" fill="rgb(221,134,120)" r="50"/>
<circle cx="1785" cy="55" fill="rgb(221,134,117)" r="50"/>
<circle cx="1890" cy="55" fill="rgb(221,135,114)" r="50"/>
<circle cx="1995" cy="55" fill="rgb(220,135,112)" r="50"/>
<circle cx="2100" cy="55" fill="rgb(220,136,109)" r="50"/>
<circle cx="2205" cy="55" fill="rgb(219,136,107)" r="50"/>
</svg>