<svg style="background-color:black;" viewBox="0 0 2310 105" xmlns="http://www.w3.org/2000/svg">
<circle cx="105" cy="55" fill="rgb(219,136,107)" r="50"/>
<circle cx="210" cy="55" fill="rgb(219,137,104)" r="50"/>
<circle cx="315" cy="55" fill="rgb(218,138,102)" r="50"/>
<circle cx="420" cy="55" fill="rgb(217,139,100)" r="50"/>
<circle cx="525" cy="55" fill="rgb(216,139,97)" r="50"/>
<circle cx="630" cy="55" fill="rgb(215,140,95)" r="50"/>
<circle cx="735" cy="55" fill="rgb(214,141,93)" r="50"/>
<circle cx="840" cy="55" fill="rgb(213,142,91)" r="50"/>
<circle cx="945" cy="55" fill="rgb(212,143,89)" r="50"/>
<circle cx="1050" cy="55" fill="rgb(211,144,88)" r="50"/>
<circle cx="1155" cy="55" fill="rgb(210,144,86)" r="50"/>
<circle cx="1260" cy="55" fill="rgb(208,145,84)" r="50"/>
<circle cx="1365" cy="55" fill="rgb(207,146,83)" r="50"/>
<circle cx="1470" cy="55" fill="rgb(205,147,81)" r="50"/>
<circle cx="1575" cy="55" fill="rgb(204,148,80)" r="50"/>
<circle cx="1680" cy="55" fill="rgb(202,149,79)" r="50"/>
<circle cx="1785" cy="55" fill="rgb(201,150,78)" r="50"/>
<circle cx="1890" cy="55" fill="rgb(199,151,77)" r="50"/>
<circle cx="1995" cy="55" fill="rgb(197,152,77)" r="50"/>
<circle cx="2100" cy="55" fill="rgb(195,153,76)" r="50"/>
<circle cx="2205" cy="55" fill="rgb(193,154,76)" r="50"/>
</svg>