<svg style="background-color:black;" viewBox="0 0 1000 2000" xmlns="http://www.w3.org/2000/svg">
<circle cx="10" cy="10" fill="rgb(218,131,161)" r="24"/>
<circle cx="10" cy="40" fill="rgb(219,131,158)" r="24"/>
<circle cx="10" cy="70" fill="rgb(219,131,156)" r="24"/>
<circle cx="10" cy="100" fill="rgb(220,131,153)" r="24"/>
<circle cx="10" cy="130" fill="rgb(220,131,150)" r="24"/>
<circle cx="10" cy="160" fill="rgb(221,131,147)" r="24"/>
<circle cx="10" cy="190" fill="rgb(221,131,145)" r="24"/>
<circle cx="10" cy="220" fill="rgb(221,131,142)" r="24"/>
<circle cx="10" cy="250" fill="rgb(222,132,139)" r="24"/>
<circle cx="10" cy="280" fill="rgb(222,132,136)" r="24"/>
<circle cx="10" cy="310" fill="rgb(222,132,133)" r="24"/>
<circle cx="10" cy="340" fill="rgb(222,132,131)" r="24"/>
<circle cx="10" cy="370" fill="rgb(222,133,128)" r="24"/>
<circle cx="10" cy="400" fill="rgb(222,133,125)" r="24"/>
<circle cx="10" cy="430" fill="rgb(222,133,122)" r="24"/>
<circle cx="10" cy="460" fill="rgb(221,134,120)" r="24"/>
<circle cx="10" cy="490" fill="rgb(221,134,117)" r="24"/>
<circle cx="10" cy="520" fill="rgb(221,135,114)" r="24"/>
<circle cx="10" cy="550" fill="rgb(220,135,112)" r="24"/>
<circle cx="10" cy="580" fill="rgb(220,136,109)" r="24"/>
<circle cx="10" cy="610" fill="rgb(219,136,107)" r="24"/>
<circle cx="10" cy="640" fill="rgb(219,137,104)" r="24"/>
<circle cx="10" cy="670" fill="rgb(218,138,102)" r="24"/>
<circle cx="10" cy="700" fill="rgb(217,139,100)" r="24"/>
<circle cx="10" cy="730" fill="rgb(216,139,97)" r="24"/>
<circle cx="10" cy="760" fill="rgb(215,140,95)" r="24"/>
<circle cx="10" cy="790" fill="rgb(214,141,93)" r="24"/>
<circle cx="10" cy="820" fill="rgb(213,142,91)" r="24"/>
<circle cx="10" cy="850" fill="rgb(212,143,89)" r="24"/>
<circle cx="10" cy="880" fill="rgb(211,144,88)" r="24"/>
<circle cx="10" cy="910" fill="rgb(210,144,86)" r="24"/>
<circle cx="10" cy="940" fill="rgb(208,145,84)" r="24"/>
<circle cx="10" cy="970" fill="rgb(207,146,83)" r="24"/>
<circle cx="10" cy="1000" fill="rgb(205,147,81)" r="24"/>
<circle cx="10" cy="1030" fill="rgb(204,148,80)" r="24"/>
<circle cx="10" cy="1060" fill="rgb(202,149,79)" r="24"/>
<circle cx="10" cy="1090" fill="rgb(201,150,78)" r="24"/>
<circle cx="10" cy="1120" fill="rgb(199,151,77)" r="24"/>
<circle cx="10" cy="1150" fill="rgb(197,152,77)" r="24"/>
<circle cx="10" cy="1180" fill="rgb(195,153,76)" r="24"/>
<circle cx="10" cy="1210" fill="rgb(193,154,76)" r="24"/>
<circle cx="10" cy="1240" fill="rgb(191,155,75)" r="24"/>
<circle cx="10" cy="1270" fill="rgb(189,157,75)" r="24"/>
<circle cx="10" cy="1300" fill="rgb(187,158,75)" r="24"/>
<circle cx="10" cy="1330" fill="rgb(185,159,75)" r="24"/>
<circle cx="10" cy="1360" fill="rgb(183,160,75)" r="24"/>
<circle cx="10" cy="1390" fill="rgb(180,161,76)" r="24"/>
<circle cx="10" cy="1420" fill="rgb(178,162,76)" r="24"/>
<circle cx="10" cy="1450" fill="rgb(176,163,77)" r="24"/>
<circle cx="10" cy="1480" fill="rgb(173,164,78)" r="24"/>
<circle cx="10" cy="1510" fill="rgb(171,165,79)" r="24"/>
<circle cx="10" cy="1540" fill="rgb(168,166,80)" r="24"/>
<circle cx="10" cy="1570" fill="rgb(166,167,81)" r="24"/>
<circle cx="10" cy="1600" fill="rgb(163,167,82)" r="24"/>
<circle cx="10" cy="1630" fill="rgb(161,168,83)" r="24"/>
<circle cx="10" cy="1660" fill="rgb(158,169,85)" r="24"/>
<circle cx="10" cy="1690" fill="rgb(155,170,86)" r="24"/>
<circle cx="10" cy="1720" fill="rgb(153,171,88)" r="24"/>
<circle cx="10" cy="1750" fill="rgb(150,172,90)" r="24"/>
<circle cx="10" cy="1780" fill="rgb(147,173,92)" r="24"/>
<circle cx="10" cy="1810" fill="rgb(145,173,93)" r="24"/>
<circle cx="10" cy="1840" fill="rgb(142,174,95)" r="24"/>
<circle cx="10" cy="1870" fill="rgb(139,175,97)" r="24"/>
<circle cx="10" cy="1900" fill="rgb(136,176,99)" r="24"/>
<circle cx="10" cy="1930" fill="rgb(133,176,101)" r="24"/>
<circle cx="10" cy="1960" fill="rgb(131,177,104)" r="24"/>
<circle cx="10" cy="1990" fill="rgb(128,177,106)" r="24"/>
<circle cx="10" cy="2020" fill="rgb(125,178,108)" r="24"/>
<circle cx="10" cy="2050" fill="rgb(122,179,110)" r="24"/>
<circle cx="10" cy="2080" fill="rgb(120,179,113)" r="24"/>
<circle cx="10" cy="2110" fill="rgb(117,180,115)" r="24"/>
<circle cx="10" cy="2140" fill="rgb(114,180,117)" r="24"/>
<circle cx="10" cy="2170" fill="rgb(111,180,120)" r="24"/>
<circle cx="10" cy="2200" fill="rgb(109,181,122)" r="24"/>
<circle cx="10" cy="2230" fill="rgb(106,181,124)" r="24"/>
<circle cx="10" cy="2260" fill="rgb(104,182,127)" r="24"/>
<circle cx="10" cy="2290" fill="rgb(101,182,129)" r="24"/>
<circle cx="10" cy="2320" fill="rgb(99,182,132)" r="24"/>
<circle cx="10" cy="2350" fill="rgb(96,182,134)" r="24"/>
<circle cx="10" cy="2380" fill="rgb(94,183,136)" r="24"/>
<circle cx="10" cy="2410" fill="rgb(92,183,139)" r="24"/>
<circle cx="10" cy="2440" fill="rgb(90,183,141)" r="24"/>
<circle cx="10" cy="2470" fill="rgb(88,183,144)" r="24"/>
<circle cx="10" cy="2500" fill="rgb(86,183,146)" r="24"/>
<circle cx="10" cy="2530" fill="rgb(84,183,148)" r="24"/>
<circle cx="10" cy="2560" fill="rgb(82,183,151)" r="24"/>
<circle cx="10" cy="2590" fill="rgb(81,183,153)" r="24"/>
<circle cx="10" cy="2620" fill="rgb(79,183,155)" r="24"/>
<circle cx="10" cy="2650" fill="rgb(78,183,158)" r="24"/>
<circle cx="10" cy="2680" fill="rgb(77,183,160)" r="24"/>
<circle cx="10" cy="2710" fill="rgb(76,183,162)" r="24"/>
<circle cx="10" cy="2740" fill="rgb(76,183,165)" r="24"/>
<circle cx="10" cy="2770" fill="rgb(75,183,167)" r="24"/>
<circle cx="10" cy="2800" fill="rgb(75,183,169)" r="24"/>
<circle cx="10" cy="2830" fill="rgb(75,183,171)" r="24"/>
<circle cx="10" cy="2860" fill="rgb(75,183,173)" r="24"/>
<circle cx="10" cy="2890" fill="rgb(75,182,176)" r="24"/>
<circle cx="10" cy="2920" fill="rgb(75,182,178)" r="24"/>
<circle cx="10" cy="2950" fill="rgb(76,182,180)" r="24"/>
<circle cx="10" cy="2980" fill="rgb(77,181,182)" r="24"/>
<circle cx="10" cy="3010" fill="rgb(77,181,184)" r="24"/>
<circle cx="10" cy="3040" fill="rgb(78,181,186)" r="24"/>
<circle cx="10" cy="3070" fill="rgb(80,180,188)" r="24"/>
<circle cx="10" cy="3100" fill="rgb(81,180,189)" r="24"/>
<circle cx="10" cy="3130" fill="rgb(82,180,191)" r="24"/>
<circle cx="10" cy="3160" fill="rgb(84,179,193)" r="24"/>
<circle cx="10" cy="3190" fill="rgb(86,179,195)" r="24"/>
<circle cx="10" cy="3220" fill="rgb(87,178,197)" r="24"/>
<circle cx="10" cy="3250" fill="rgb(89,178,198)" r="24"/>
<circle cx="10" cy="3280" fill="rgb(91,177,200)" r="24"/>
<circle cx="10" cy="3310" fill="rgb(93,177,201)" r="24"/>
<circle cx="10" cy="3340" fill="rgb(95,176,203)" r="24"/>
<circle cx="10" cy="3370" fill="rgb(97,176,204)" r="24"/>
<circle cx="10" cy="3400" fill="rgb(99,175,206)" r="24"/>
<circle cx="10" cy="3430" fill="rgb(101,175,207)" r="24"/>
<circle cx="10" cy="3460" fill="rgb(103,174,209)" r="24"/>
<circle cx="10" cy="3490" fill="rgb(106,173,210)" r="24"/>
<circle cx="10" cy="3520" fill="rgb(108,173,211)" r="24"/>
<circle cx="10" cy="3550" fill="rgb(110,172,212)" r="24"/>
<circle cx="10" cy="3580" fill="rgb(112,171,213)" r="24"/>
<circle cx="10" cy="3610" fill="rgb(115,171,215)" r="24"/>
<circle cx="10" cy="3640" fill="rgb(117,170,216)" r="24"/>
<circle cx="10" cy="3670" fill="rgb(119,169,217)" r="24"/>
<circle cx="10" cy="3700" fill="rgb(121,169,217)" r="24"/>
<circle cx="10" cy="3730" fill="rgb(124,168,218)" r="24"/>
<circle cx="10" cy="3760" fill="rgb(126,167,219)" r="24"/>
<circle cx="10" cy="3790" fill="rgb(128,166,220)" r="24"/>
<circle cx="10" cy="3820" fill="rgb(131,166,221)" r="24"/>
<circle cx="10" cy="3850" fill="rgb(133,165,221)" r="24"/>
<circle cx="10" cy="3880" fill="rgb(135,164,222)" r="24"/>
<circle cx="10" cy="3910" fill="rgb(137,163,222)" r="24"/>
<circle cx="10" cy="3940" fill="rgb(140,162,223)" r="24"/>
<circle cx="10" cy="3970" fill="rgb(142,162,223)" r="24"/>
<circle cx="10" cy="4000" fill="rgb(144,161,223)" r="24"/>
<circle cx="10" cy="4030" fill="rgb(146,160,224)" r="24"/>
<circle cx="10" cy="4060" fill="rgb(148,159,224)" r="24"/>
<circle cx="10" cy="4090" fill="rgb(151,158,224)" r="24"/>
<circle cx="10" cy="4120" fill="rgb(153,158,224)" r="24"/>
<circle cx="10" cy="4150" fill="rgb(155,157,224)" r="24"/>
<circle cx="10" cy="4180" fill="rgb(157,156,224)" r="24"/>
<circle cx="10" cy="4210" fill="rgb(159,155,224)" r="24"/>
<circle cx="10" cy="4240" fill="rgb(161,154,223)" r="24"/>
<circle cx="10" cy="4270" fill="rgb(163,154,223)" r="24"/>
<circle cx="10" cy="4300" fill="rgb(165,153,223)" r="24"/>
<circle cx="10" cy="4330" fill="rgb(167,152,222)" r="24"/>
<circle cx="10" cy="4360" fill="rgb(169,151,222)" r="24"/>
<circle cx="10" cy="4390" fill="rgb(171,150,221)" r="24"/>
<circle cx="10" cy="4420" fill="rgb(173,149,221)" r="24"/>
<circle cx="10" cy="4450" fill="rgb(175,149,220)" r="24"/>
<circle cx="10" cy="4480" fill="rgb(177,148,219)" r="24"/>
<circle cx="10" cy="4510" fill="rgb(179,147,218)" r="24"/>
<circle cx="10" cy="4540" fill="rgb(180,146,217)" r="24"/>
<circle cx="10" cy="4570" fill="rgb(182,146,216)" r="24"/>
<circle cx="10" cy="4600" fill="rgb(184,145,215)" r="24"/>
<circle cx="10" cy="4630" fill="rgb(186,144,214)" r="24"/>
<circle cx="10" cy="4660" fill="rgb(187,143,213)" r="24"/>
<circle cx="10" cy="4690" fill="rgb(189,143,212)" r="24"/>
<circle cx="10" cy="4720" fill="rgb(191,142,210)" r="24"/>
<circle cx="10" cy="4750" fill="rgb(192,141,209)" r="24"/>
<circle cx="10" cy="4780" fill="rgb(194,140,207)" r="24"/>
<circle cx="10" cy="4810" fill="rgb(196,140,206)" r="24"/>
<circle cx="10" cy="4840" fill="rgb(197,139,204)" r="24"/>
<circle cx="10" cy="4870" fill="rgb(198,138,202)" r="24"/>
<circle cx="10" cy="4900" fill="rgb(200,138,201)" r="24"/>
<circle cx="10" cy="4930" fill="rgb(201,137,199)" r="24"/>
<circle cx="10" cy="4960" fill="rgb(203,137,197)" r="24"/>
<circle cx="10" cy="4990" fill="rgb(204,136,195)" r="24"/>
<circle cx="10" cy="5020" fill="rgb(205,136,193)" r="24"/>
<circle cx="10" cy="5050" fill="rgb(207,135,191)" r="24"/>
<circle cx="10" cy="5080" fill="rgb(208,135,188)" r="24"/>
<circle cx="10" cy="5110" fill="rgb(209,134,186)" r="24"/>
<circle cx="10" cy="5140" fill="rgb(210,134,184)" r="24"/>
<circle cx="10" cy="5170" fill="rgb(211,133,182)" r="24"/>
<circle cx="10" cy="5200" fill="rgb(212,133,179)" r="24"/>
<circle cx="10" cy="5230" fill="rgb(213,133,177)" r="24"/>
<circle cx="10" cy="5260" fill="rgb(214,132,174)" r="24"/>
<circle cx="10" cy="5290" fill="rgb(215,132,172)" r="24"/>
<circle cx="10" cy="5320" fill="rgb(216,132,169)" r="24"/>
<circle cx="10" cy="5350" fill="rgb(217,132,166)" r="24"/>
<circle cx="10" cy="5380" fill="rgb(217,131,164)" r="24"/>
<circle cx="10" cy="5410" fill="rgb(218,131,161)" r="24"/>
</svg>