<svg style="background-color:black;" viewBox="0 0 7770 105" xmlns="http://www.w3.org/2000/svg">
<circle cx="105" cy="55" fill="rgb(228,124,161)" r="50"/>
<circle cx="210" cy="55" fill="rgb(229,123,153)" r="50"/>
<circle cx="315" cy="55" fill="rgb(231,124,144)" r="50"/>
<circle cx="420" cy="55" fill="rgb(231,124,136)" r="50"/>
<circle cx="525" cy="55" fill="rgb(232,125,127)" r="50"/>
<circle cx="630" cy="55" fill="rgb(232,126,119)" r="50"/>
<circle cx="735" cy="55" fill="rgb(231,127,111)" r="50"/>
<circle cx="840" cy="55" fill="rgb(230,129,103)" r="50"/>
<circle cx="945" cy="55" fill="rgb(228,130,95)" r="50"/>
<circle cx="1050" cy="55" fill="rgb(226,133,88)" r="50"/>
<circle cx="1155" cy="55" fill="rgb(224,135,81)" r="50"/>
<circle cx="1260" cy="55" fill="rgb(221,138,75)" r="50"/>
<circle cx="1365" cy="55" fill="rgb(218,140,69)" r="50"/>
<circle cx="1470" cy="55" fill="rgb(214,143,65)" r="50"/>
<circle cx="1575" cy="55" fill="rgb(209,146,61)" r="50"/>
<circle cx="1680" cy="55" fill="rgb(204,149,57)" r="50"/>
<circle cx="1785" cy="55" fill="rgb(199,152,55)" r="50"/>
<circle cx="1890" cy="55" fill="rgb(193,155,55)" r="50"/>
<circle cx="1995" cy="55" fill="rgb(187,159,55)" r="50"/>
<circle cx="2100" cy="55" fill="rgb(180,162,56)" r="50"/>
<circle cx="2205" cy="55" fill="rgb(173,165,59)" r="50"/>
<circle cx="2310" cy="55" fill="rgb(166,167,63)" r="50"/>
<circle cx="2415" cy="55" fill="rgb(158,170,67)" r="50"/>
<circle cx="2520" cy="55" fill="rgb(150,173,72)" r="50"/>
<circle cx="2625" cy="55" fill="rgb(141,175,78)" r="50"/>
<circle cx="2730" cy="55" fill="rgb(132,177,84)" r="50"/>
<circle cx="2835" cy="55" fill="rgb(123,179,91)" r="50"/>
<circle cx="2940" cy="55" fill="rgb(114,181,97)" r="50"/>
<circle cx="3045" cy="55" fill="rgb(104,183,104)" r="50"/>
<circle cx="3150" cy="55" fill="rgb(95,184,112)" r="50"/>
<circle cx="3255" cy="55" fill="rgb(84,185,119)" r="50"/>
<circle cx="3360" cy="55" fill="rgb(74,186,126)" r="50"/>
<circle cx="3465" cy="55" fill="rgb(63,187,134)" r="50"/>
<circle cx="3570" cy="55" fill="rgb(52,188,141)" r="50"/>
<circle cx="3675" cy="55" fill="rgb(41,188,148)" r="50"/>
<circle cx="3780" cy="55" fill="rgb(30,188,155)" r="50"/>
<circle cx="3885" cy="55" fill="rgb(18,188,162)" r="50"/>
<circle cx="3990" cy="55" fill="rgb(7,188,169)" r="50"/>
<circle cx="4095" cy="55" fill="rgb(2,187,176)" r="50"/>
<circle cx="4200" cy="55" fill="rgb(8,186,183)" r="50"/>
<circle cx="4305" cy="55" fill="rgb(19,185,189)" r="50"/>
<circle cx="4410" cy="55" fill="rgb(30,184,195)" r="50"/>
<circle cx="4515" cy="55" fill="rgb(41,183,201)" r="50"/>
<circle cx="4620" cy="55" fill="rgb(52,182,206)" r="50"/>
<circle cx="4725" cy="55" fill="rgb(62,180,211)" r="50"/>
<circle cx="4830" cy="55" fill="rgb(72,178,216)" r="50"/>
<circle cx="4935" cy="55" fill="rgb(81,176,220)" r="50"/>
<circle cx="5040" cy="55" fill="rgb(90,174,224)" r="50"/>
<circle cx="5145" cy="55" fill="rgb(99,172,228)" r="50"/>
<circle cx="5250" cy="55" fill="rgb(107,170,231)" r="50"/>
<circle cx="5355" cy="55" fill="rgb(115,168,233)" r="50"/>
<circle cx="5460" cy="55" fill="rgb(123,165,236)" r="50"/>
<circle cx="5565" cy="55" fill="rgb(131,163,237)" r="50"/>
<circle cx="5670" cy="55" fill="rgb(138,160,239)" r="50"/>
<circle cx="5775" cy="55" fill="rgb(145,158,239)" r="50"/>
<circle cx="5880" cy="55" fill="rgb(152,155,240)" r="50"/>
<circle cx="5985" cy="55" fill="rgb(159,153,239)" r="50"/>
<circle cx="6090" cy="55" fill="rgb(165,150,238)" r="50"/>
<circle cx="6195" cy="55" fill="rgb(171,147,237)" r="50"/>
<circle cx="6300" cy="55" fill="rgb(177,145,235)" r="50"/>
<circle cx="6405" cy="55" fill="rgb(183,142,232)" r="50"/>
<circle cx="6510" cy="55" fill="rgb(188,140,229)" r="50"/>
<circle cx="6615" cy="55" fill="rgb(193,138,225)" r="50"/>
<circle cx="6720" cy="55" fill="rgb(198,135,221)" r="50"/>
<circle cx="6825" cy="55" fill="rgb(203,133,216)" r="50"/>
<circle cx="6930" cy="55" fill="rgb(207,131,211)" r="50"/>
<circle cx="7035" cy="55" fill="rgb(211,130,205)" r="50"/>
<circle cx="7140" cy="55" fill="rgb(215,128,199)" r="50"/>
<circle cx="7245" cy="55" fill="rgb(218,127,192)" r="50"/>
<circle cx="7350" cy="55" fill="rgb(221,126,185)" r="50"/>
<circle cx="7455" cy="55" fill="rgb(224,125,177)" r="50"/>
<circle cx="7560" cy="55" fill="rgb(226,124,169)" r="50"/>
<circle cx="7665" cy="55" fill="rgb(228,124,161)" r="50"/>
</svg>