<?xml version="1.0" encoding="UTF-8" standalone="no"?>
<!DOCTYPE svg PUBLIC "-//W3C//DTD SVG 1.1//EN" "http://www.w3.org/Graphics/SVG/1.1/DTD/svg11.dtd">
<svg width="100%" height="100%" viewBox="0 0 1730 530" version="1.1" xmlns="http://www.w3.org/2000/svg" xmlns:xlink="http://www.w3.org/1999/xlink" xml:space="preserve" xmlns:serif="http://www.serif.com/" style="fill-rule:evenodd;clip-rule:evenodd;stroke-linejoin:round;stroke-miterlimit:2;">
    <g id="Artboard1" transform="matrix(1.31559,0,0,0.450879,-1585.29,774.187)">
        <rect x="1205" y="-1717.06" width="1315" height="1173.45" style="fill:none;"/>
        <g transform="matrix(0.760116,0,0,2.21789,1046.55,-1767.86)">
            <path d="M398.332,250.67C393.838,245.427 388.595,241.369 382.602,238.498C376.61,235.626 370.368,234.191 363.876,234.191C357.134,234.191 351.079,236.313 345.711,240.558C340.343,244.802 337.659,251.794 337.659,261.531C337.659,269.771 340.405,276.2 345.898,280.82C351.391,285.439 359.506,290.495 370.243,295.988C376.235,298.984 382.54,302.542 389.156,306.662C395.773,310.782 401.828,315.838 407.321,321.831C412.814,327.823 417.371,335.002 420.991,343.366C424.612,351.73 426.422,361.656 426.422,373.141C426.422,387.373 424.175,399.92 419.681,410.781C415.186,421.643 409.131,430.631 401.516,437.747C393.9,444.863 385.099,450.232 375.112,453.852C365.124,457.473 354.762,459.283 344.026,459.283C328.046,459.283 313.502,456.287 300.393,450.294C287.284,444.302 276.735,437.31 268.745,429.32L299.457,384.377C305.199,390.369 311.816,395.176 319.307,398.796C326.797,402.417 334.413,404.227 342.153,404.227C349.394,404.227 355.511,401.855 360.505,397.111C365.499,392.367 367.996,385.75 367.996,377.261C367.996,368.522 364.999,361.593 359.007,356.475C353.014,351.356 344.275,345.925 332.79,340.183C325.549,336.687 318.745,332.817 312.378,328.572C306.011,324.327 300.393,319.209 295.524,313.216C290.655,307.224 286.848,300.233 284.101,292.243C281.354,284.253 279.981,274.765 279.981,263.779C279.981,249.047 282.416,236.376 287.284,225.764C292.153,215.152 298.52,206.476 306.385,199.734C314.251,192.993 322.99,187.999 332.603,184.753C342.215,181.507 351.891,179.884 361.629,179.884C376.11,179.884 389.094,182.256 400.58,187C412.065,191.744 421.678,198.236 429.418,206.476L398.332,250.67Z" style="fill:rgb(60,138,172);fill-rule:nonzero;"/>
        </g>
        <g transform="matrix(0.760116,0,0,2.21789,1038.18,-1767.86)">
            <path d="M624.923,270.146C624.923,284.877 622.675,297.611 618.181,308.348C613.687,319.084 607.694,327.948 600.204,334.939C592.713,341.93 584.224,347.111 574.736,350.482C565.248,353.853 555.635,355.538 545.897,355.538L520.054,355.538L520.054,452.167L461.253,452.167L461.253,187L543.65,187C553.138,187 562.688,188.373 572.301,191.12C581.914,193.866 590.653,198.423 598.518,204.79C606.383,211.157 612.75,219.709 617.619,230.445C622.488,241.182 624.923,254.415 624.923,270.146ZM568.743,271.269C568.743,259.284 565.872,250.67 560.129,245.427C554.386,240.183 547.395,237.562 539.155,237.562L520.054,237.562L520.054,306.849L539.155,306.849C547.395,306.849 554.386,303.791 560.129,297.673C565.872,291.556 568.743,282.755 568.743,271.269Z" style="fill:rgb(60,138,172);fill-rule:nonzero;"/>
        </g>
        <g transform="matrix(0.760116,0,0,2.21789,1026.78,-1767.86)">
            <path d="M656.758,452.167L656.758,187L784.846,187L784.846,239.809L714.06,239.809L714.06,291.868L779.229,291.868L779.229,341.306L714.06,341.306L714.06,398.609L789.341,398.609L789.341,452.167L656.758,452.167Z" style="fill:rgb(60,138,172);fill-rule:nonzero;"/>
        </g>
        <g transform="matrix(0.760116,0,0,2.21789,1014.62,-1767.86)">
            <path d="M990.088,423.328C982.848,433.565 973.36,442.117 961.624,448.983C949.889,455.85 934.908,459.283 916.681,459.283C901.2,459.283 887.155,455.85 874.546,448.983C861.937,442.117 851.138,432.504 842.149,420.144C833.161,407.785 826.17,393.054 821.176,375.95C816.182,358.847 813.685,340.058 813.685,319.583C813.685,298.859 816.182,279.883 821.176,262.655C826.17,245.427 833.161,230.695 842.149,218.461C851.138,206.226 861.937,196.738 874.546,189.996C887.155,183.255 901.2,179.884 916.681,179.884C934.408,179.884 949.202,183.068 961.062,189.435C972.923,195.802 982.473,203.729 989.714,213.217L957.504,256.663C953.01,250.67 947.954,245.926 942.336,242.43C936.718,238.935 929.664,237.187 921.175,237.187C913.185,237.187 906.256,239.309 900.389,243.554C894.521,247.799 889.527,253.604 885.408,260.97C881.288,268.335 878.229,277.074 876.232,287.187C874.234,297.299 873.235,308.098 873.235,319.583C873.235,331.069 874.234,341.805 876.232,351.793C878.229,361.78 881.288,370.519 885.408,378.01C889.527,385.501 894.584,391.368 900.576,395.613C906.568,399.857 913.56,401.98 921.55,401.98C929.54,401.98 936.531,399.982 942.523,395.987C948.516,391.992 953.26,387.248 956.755,381.755L990.088,423.328Z" style="fill:rgb(60,138,172);fill-rule:nonzero;"/>
        </g>
        <g transform="matrix(0.760116,0,0,2.21789,1022.22,-1767.86)">
            <path d="M1097.58,237.936L1097.58,452.167L1038.78,452.167L1038.78,237.936L990.088,237.936L990.088,187L1146.27,187L1146.27,237.936L1097.58,237.936Z" style="fill:rgb(60,138,172);fill-rule:nonzero;"/>
        </g>
        <g transform="matrix(0.760116,0,0,2.21789,1013.1,-1767.86)">
            <path d="M1280.35,452.167L1244.77,346.55L1227.16,346.55L1227.16,452.167L1169.49,452.167L1169.49,187L1254.51,187C1280.22,187 1300.2,193.679 1314.43,207.037C1328.66,220.396 1335.78,240.308 1335.78,266.775C1335.78,276.513 1334.65,285.252 1332.41,292.992C1330.16,300.732 1327.23,307.349 1323.61,312.842C1319.99,318.335 1315.93,322.829 1311.43,326.325C1306.94,329.821 1302.57,332.317 1298.33,333.816L1343.64,452.167L1280.35,452.167ZM1276.6,270.146C1276.6,263.404 1275.67,257.911 1273.79,253.666C1271.92,249.422 1269.49,246.051 1266.49,243.554C1263.5,241.057 1260.19,239.372 1256.57,238.498C1252.95,237.624 1249.39,237.187 1245.89,237.187L1227.16,237.187L1227.16,304.228L1244.77,304.228C1253.26,304.228 1260.69,301.544 1267.05,296.175C1273.42,290.807 1276.6,282.13 1276.6,270.146Z" style="fill:rgb(60,138,172);fill-rule:nonzero;"/>
        </g>
        <g transform="matrix(0.760116,0,0,2.21789,1013.1,-1767.86)">
            <path d="M1489.71,452.167L1478.85,403.852L1419.3,403.852L1408.44,452.167L1348.51,452.167L1412.93,187L1488.21,187L1552.26,452.167L1489.71,452.167ZM1450.01,244.678L1448.51,244.678L1426.04,357.411L1471.36,357.411L1450.01,244.678Z" style="fill:rgb(60,138,172);fill-rule:nonzero;"/>
        </g>
        <g transform="matrix(1.64024,0,0,5.2029,2851.21,-950.686)">
            <path d="M-357.108,25.34C-361.564,14.519 -363.792,3.743 -363.792,-6.988C-363.792,-17.991 -361.336,-28.722 -356.426,-39.18L-340.466,-39.18C-336.829,-39.18 -334.146,-39.794 -332.418,-41.021C-330.69,-42.249 -327.78,-45.636 -323.688,-51.184L-319.869,-56.231C-315.686,-61.96 -312.73,-65.825 -311.002,-67.825L-285.631,-94.697L-278.811,-124.979L-274.991,-124.024C-260.623,-120.66 -253.439,-112.203 -253.439,-98.653C-253.439,-93.742 -255.849,-86.786 -260.669,-77.783L-262.715,-73.963C-266.716,-66.325 -273.289,-52.727 -274.38,-44.542C-274.38,-44.542 -248.848,-55.787 -234.615,-43.34C-227.723,-37.313 -222.475,-32.769 -222.475,-25.403C-222.475,-18.946 -232.455,-14.089 -237.457,-8.815C-235.456,-5.632 -227.551,-4.965 -227.813,2.187C-228.069,9.185 -237.015,11.354 -244.381,13.354C-244.108,14.991 -238.008,17.506 -239.145,25.354C-240.41,34.089 -247.843,32.123 -257.664,32.941C-257.482,34.123 -254.693,42.525 -258.013,44.889C-261.332,47.253 -265.397,49.348 -272.127,49.348L-278.129,49.348L-282.903,46.892C-288.905,48.529 -294.179,49.348 -298.726,49.348C-300.363,49.348 -302.909,49.211 -306.365,48.938C-317.277,43.937 -327.417,36.071 -336.783,25.34L-357.108,25.34Z" style="fill:rgb(203,166,54);fill-rule:nonzero;"/>
        </g>
    </g>
</svg>
